<svg width="577" height="433" viewBox="0 0 577 433" fill="none" xmlns="http://www.w3.org/2000/svg">
<g clip-path="url(#clip0_0_1)">
<path d="M485.759 125.11C485.759 125.11 485.907 125.582 485.963 125.998C486.018 126.413 485.857 126.72 485.64 127.062C484.976 129.669 484.141 131.933 484.138 134.198C484.065 200.098 484.061 265.998 484.146 331.898C484.149 333.701 485.268 335.502 485.953 337.448C486.038 337.594 485.971 337.924 485.971 337.924C485.971 337.924 485.921 338.407 485.555 338.83C484.864 340.797 484.538 342.341 484.17 344.342C484.739 353.904 481.594 361.231 473.338 365.548C460.855 372.075 448.158 378.191 435.634 384.641C433.547 385.717 431.876 387.6 430.012 389.111C426.759 390.504 423.506 391.897 419.661 393.638C416.267 394.951 413.355 395.679 410.685 396.928C403.174 400.444 395.839 404.344 388.282 407.755C383.675 409.835 378.933 410.129 375.287 406.097C385.389 404.366 388.927 400.21 388.955 389.94C389.033 361.943 389.007 333.947 389.207 305.61C389.235 302.348 389.079 299.427 388.906 296.259C388.917 295.68 388.994 295.361 389.306 294.682C389.66 292.834 389.977 291.359 389.977 289.883C390.001 239.535 390.007 189.187 389.947 138.839C389.944 136.904 389.261 134.97 388.903 132.776C388.902 132.344 388.893 132.171 388.905 131.53C388.939 103.346 388.992 75.6304 388.945 47.9146C388.931 39.4586 384.911 34.3289 377.053 31.6083C381.867 31.1967 386.456 31.0969 391.044 30.997C391.044 30.997 390.986 31.0057 391.144 31.2913C392.57 32.0513 393.838 32.5256 395.106 33C395.106 33 395.543 33.0869 395.917 33.3136C396.521 33.7397 396.78 33.8877 397.069 33.9843C397.069 33.9843 397.007 33.994 397.104 34.3021C402.169 36.7464 407.137 38.8826 412.105 41.0188C412.105 41.0188 412.49 41.1051 412.76 41.508C417.369 43.946 421.709 45.9811 426.048 48.0162C426.048 48.0162 426.474 48.0921 426.844 48.4356C428.156 49.1836 429.098 49.5881 430.04 49.9926C430.04 49.9926 429.989 50.0039 430.118 50.3068C433.859 52.0534 437.47 53.4971 441.082 54.9408C441.082 54.9408 441.017 54.9548 441.141 55.2526C444.537 57.0341 447.81 58.5178 451.083 60.0015C451.083 60.0015 451.516 60.0826 451.899 60.2934C452.51 60.7151 452.772 60.8724 453.066 60.9761C453.066 60.9761 453.006 60.9866 453.149 61.2888C455.567 62.3915 457.842 63.1919 460.118 63.9923C460.118 63.9923 460.52 64.0859 460.884 64.305C461.48 64.735 461.747 64.8852 462.047 64.9747C462.047 64.9747 461.997 64.9949 462.133 65.3077C464.218 66.4118 466.167 67.2032 468.115 67.9946C468.115 67.9946 468.538 68.0935 468.897 68.3263C469.477 68.7711 469.734 68.9209 470.027 69.0085C470.027 69.0085 470.492 69.124 470.883 69.3455C471.502 69.7735 471.764 69.917 472.061 69.9976C472.061 69.9976 472.478 70.1045 472.846 70.4491C474.166 71.1799 475.117 71.5663 476.068 71.9526C476.068 71.9526 476.006 71.9777 476.141 72.263C477.226 73.0283 478.176 73.5083 479.126 73.9882C479.685 74.4555 480.245 74.9228 480.894 76.0277C482.252 78.4747 483.522 80.284 484.791 82.0933C484.834 82.2563 484.878 82.4193 484.968 83.0071C485.014 83.432 484.961 83.7779 484.763 84.1662C484.694 94.3734 484.823 104.192 484.982 114.196C485.011 114.38 485.042 114.753 484.975 115.049C484.88 115.545 484.852 115.746 484.679 116.106C484.357 116.494 484.208 116.74 484.155 117.377C484.734 120.205 485.247 122.657 485.759 125.11Z" fill="#3C99D5"/>
<path d="M389.023 305.95C389.007 333.947 389.033 361.943 388.955 389.94C388.927 400.21 385.389 404.366 374.926 406.084C373.442 406.118 372.717 406.123 371.993 406.128C368.767 403.641 365.542 401.154 362.093 398.026C360.77 395.954 359.846 394.335 358.544 393.124C342.667 378.354 326.78 363.594 310.761 348.979C308.512 346.926 305.542 345.663 302.906 344.035C302.906 344.035 302.97 344.02 302.899 343.714C299.17 339.479 295.659 335.395 291.769 331.71C290.531 330.537 288.286 330.427 286.502 329.831C286.502 329.831 286.3 329.785 286.222 329.411C285.735 328.701 285.325 328.366 284.916 328.031C284.916 328.031 284.981 328.03 284.904 327.732C283.858 326.636 282.888 325.837 281.919 325.038C281.919 325.038 281.98 325.02 281.902 324.712C272.795 315.915 263.786 307.406 254.701 298.978C254.046 298.37 252.843 298.353 251.895 298.061C251.895 298.061 251.959 298.04 251.888 297.731C247.508 293.642 243.198 289.861 238.888 286.08C238.888 286.08 238.98 286.031 238.932 285.709C236.904 283.929 234.925 282.471 232.945 281.013C232.945 281.013 233 280.998 232.974 280.663C228.203 272.791 221.409 267.696 213.289 263.656C212.062 262.065 211.149 260.637 209.938 259.54C199.625 250.204 189.281 240.903 178.897 231.646C174.338 227.582 169.667 223.645 165.024 219.298C164.223 217.561 163.738 215.854 162.623 214.842C142.736 196.798 122.755 178.858 102.842 160.843C99.1402 157.495 99.0451 152.887 102.76 149.648C114.47 139.439 126.306 129.375 138.093 119.254C138.49 119.218 138.886 119.182 139.766 119.476C142.179 120.538 144.107 121.27 146.035 122.001C146.035 122.001 145.983 122.014 146.127 122.191C146.487 122.623 146.74 122.831 147.031 122.992C147.031 122.992 146.996 123.006 147.093 123.323C148.804 124.751 150.418 125.861 152.031 126.971C152.031 126.971 152.482 127.067 152.865 127.3C153.479 127.746 153.742 127.904 154.039 128.008C154.039 128.008 153.981 128.01 154.07 128.322C156.809 130.439 159.46 132.243 162.111 134.046C162.44 134.073 162.689 134.228 163.065 134.938C163.527 135.576 163.782 135.789 164.038 136.002C164.038 136.002 163.989 136.013 164.127 136.29C165.198 137.039 166.132 137.51 167.065 137.982C167.065 137.982 167.01 138.002 167.007 138.236C167.013 138.646 167.021 138.821 167.27 139.224C170.695 141.287 173.879 143.123 177.063 144.959C177.063 144.959 177.005 144.992 177.025 145.336C177.64 149.741 180.878 150.321 184.046 150.994C184.046 150.994 183.991 151.009 184.128 151.283C185.206 152.042 186.146 152.528 187.086 153.013C187.421 153.063 187.676 153.232 188.059 153.949C188.478 154.633 188.727 154.842 189.015 155.005C189.015 155.005 188.992 155.009 189.089 155.333C191.165 156.783 193.144 157.908 195.123 159.033C195.675 159.52 196.228 160.007 197.025 160.95C197.488 161.65 197.744 161.846 198.036 161.994C198.036 161.994 197.993 162.007 198.118 162.307C200.181 163.73 202.119 164.854 204.057 165.978C204.057 165.978 203.998 165.998 204.146 166.179C204.562 166.576 204.83 166.791 205.099 167.007C205.099 167.007 205.479 167.091 205.848 167.306C206.466 167.73 206.744 167.89 207.05 168.001C207.05 168.001 206.991 168.001 207.086 168.306C209.151 170.081 211.121 171.55 213.091 173.019C213.091 173.019 213.514 173.081 213.886 173.306C214.492 173.74 214.731 173.941 215.18 174.395C226.766 183.322 238.087 192.073 249.552 200.631C257.942 206.892 266.522 212.898 275.178 219.238C276.914 220.594 278.489 221.73 280.079 222.885C280.094 222.902 280.055 222.929 280.193 223.128C280.541 223.576 280.788 223.782 281.044 223.973C281.017 224 281.049 223.93 281.195 224.13C281.555 224.585 281.814 224.784 282.413 225.105C285.762 227.578 288.814 229.874 292.058 232.343C292.548 232.683 292.848 232.85 293.353 233.103C293.821 233.381 293.95 233.639 294.043 234.304C295.477 235.443 296.813 236.241 298.352 237.104C298.816 237.339 298.953 237.579 299.099 238.199C300.167 239.003 301.105 239.499 302.016 239.998C301.988 240.002 302.004 239.948 302.106 240.274C304.488 242.063 306.767 243.526 309.019 245C308.991 245.01 308.992 244.951 309.132 245.163C309.537 245.584 309.801 245.793 310.03 246.003C309.995 246.003 309.997 245.933 310.136 246.148C310.538 246.577 310.803 246.791 311.029 247.005C310.992 247.005 310.991 246.93 311.136 247.133C311.503 247.586 311.76 247.795 312.41 247.998C314.276 248.939 315.9 249.694 317.273 250.77C323.705 255.809 330.033 260.981 336.466 266.02C342.586 270.813 348.79 275.499 355.114 280.394C355.5 280.759 355.76 280.907 356.021 281.001C355.989 281.005 355.994 280.942 356.137 281.152C356.543 281.576 356.806 281.789 357.033 282.003C356.998 282.004 356.996 281.934 357.14 282.138C357.503 282.596 357.759 282.804 358.027 282.983C358.002 282.998 358.035 282.949 358.168 283.246C359.224 284.018 360.147 284.494 361.04 284.977C361.01 284.984 361.024 284.924 361.152 285.227C362.205 286.015 363.13 286.499 364.025 286.991C363.995 286.999 363.997 286.937 364.139 287.149C364.544 287.574 364.808 287.787 365.038 287.999C365.005 287.997 365.017 287.932 365.095 288.276C366.813 289.749 368.455 290.879 370.315 292.089C370.806 292.356 370.964 292.614 371.142 293.247C372.221 294.021 373.167 294.49 374.405 295.099C376.088 296.205 377.477 297.17 378.971 298.466C382.391 301.181 385.707 303.566 389.023 305.95Z" fill="#2389CB"/>
<path d="M275.018 219.018C266.522 212.898 257.942 206.892 249.552 200.631C238.087 192.073 226.766 183.322 215.369 174.218C215.569 173.518 215.784 173.253 215.999 172.988C216.565 172.35 217.131 171.712 218.282 170.839C221.609 168.495 224.552 166.598 227.046 164.228C231.187 160.293 235.038 156.054 239.011 151.943C239.011 151.943 239.012 152.013 239.329 151.925C242.856 150.543 246.305 149.472 245.993 144.939C245.993 144.939 245.996 145.003 246.324 144.96C248.763 142.917 250.875 140.918 252.986 138.918C252.986 138.918 253.012 139.007 253.135 138.851C253.486 138.475 253.716 138.258 253.95 138.045C254.118 137.758 254.286 137.471 255.052 137.063C257.43 135.268 259.21 133.593 260.99 131.919C260.99 131.919 261.005 131.998 261.179 131.863C261.567 131.464 261.782 131.2 261.996 130.935C261.996 130.935 261.98 130.998 262.296 130.94C267.071 126.564 271.529 122.246 275.988 117.928C275.988 117.928 275.995 117.996 276.314 117.94C278.092 116.249 279.55 114.613 281.009 112.978C281.009 112.978 281.016 113.016 281.345 112.972C282.783 111.93 283.892 110.933 285.001 109.935C285.001 109.935 285.006 110.003 285.298 109.927C286.384 108.876 287.179 107.9 287.974 106.924C287.974 106.924 287.983 106.986 288.313 106.963C290.435 105.279 292.227 103.618 294.019 101.957C294.019 101.957 294.018 102.024 294.321 101.92C296.075 100.178 297.527 98.5407 298.978 96.9032C298.978 96.9032 298.982 96.9737 299.305 96.9321C302.745 93.9013 305.861 90.9121 308.977 87.923C308.977 87.923 308.978 87.9908 309.294 87.9409C313.391 84.2335 317.174 80.5761 320.956 76.9186C320.956 76.9186 320.98 76.9803 321.311 76.9564C325.704 73.709 329.813 70.5426 333.771 67.1982C334.336 66.7207 334.173 65.3814 334.347 64.4409C334.347 64.4409 334.367 64.341 334.781 64.4152C336.459 63.299 337.724 62.1086 338.989 60.9183C338.989 60.9183 338.987 60.9895 339.286 60.9061C340.739 59.4785 341.891 58.1342 343.044 56.79C343.082 56.4714 343.243 56.2384 344.048 55.9635C345.388 55.2174 346.208 54.599 347.066 53.688C347.103 53.1986 347.102 53.0019 347.1 52.8051C347.117 52.4962 347.263 52.2722 348.038 51.9979C349.006 51.4928 349.476 51.1231 349.946 50.7534C349.946 50.7534 349.94 50.9451 350.127 50.7895C350.53 50.0646 350.745 49.4954 350.961 48.9262C350.961 48.9262 350.984 48.9857 351.289 48.9702C352.057 48.2824 352.52 47.6101 352.983 46.9378C352.983 46.9378 352.996 46.9953 353.311 47.0151C354.424 46.3365 355.222 45.6381 356.02 44.9397C356.02 44.9397 356.018 45.0192 356.27 44.9065C357.022 44.1781 357.524 43.5624 358.025 42.9468C358.025 42.9468 358.024 43.0243 358.292 42.9386C359.045 42.2155 359.53 41.578 360.015 40.9405C360.015 40.9405 360.014 41.0168 360.293 40.911C361.09 40.1153 361.608 39.4254 362.126 38.7355C362.092 38.4933 362.18 38.3098 362.915 38.1228C364.328 37.3567 365.217 36.653 366.107 35.9492C366.306 35.6747 366.505 35.4002 367.196 34.9085C368.138 34.1173 368.587 33.5433 369.037 32.9693C369.037 32.9693 369.039 33.0373 369.416 33.008C372.138 32.6258 374.482 32.2729 376.827 31.92C384.911 34.3289 388.931 39.4587 388.945 47.9146C388.992 75.6304 388.939 103.346 388.564 131.581C387.588 132.334 386.879 132.443 386.37 132.821C373.915 142.092 361.45 151.349 349.09 160.746C347.75 161.765 347.046 163.623 346.036 165.067C346.025 165.043 346.079 165.043 345.714 165.068C336.465 171.477 327.571 177.848 318.724 184.283C318.286 184.601 318.252 185.476 318.024 186.058C318.02 186.025 318.086 186.027 317.734 186.091C311.864 190.004 306.193 193.656 300.882 197.773C297.331 200.526 294.294 203.94 291.015 207.032C291.002 207.006 291.057 207.025 290.701 207.079C285.236 211.095 280.127 215.057 275.018 219.018Z" fill="#0A78B9"/>
<path d="M137.689 119.159C126.306 129.375 114.47 139.439 102.76 149.648C99.0451 152.887 99.1401 157.495 102.842 160.843C122.755 178.858 142.736 196.798 162.623 214.842C163.738 215.854 164.223 217.561 164.798 219.393C164.595 219.841 164.137 220.011 163.805 220.018C163.029 220.021 162.585 220.016 162.142 220.012C161.933 219.015 162.075 217.627 161.464 217.078C149.698 206.52 137.78 196.13 126.028 185.556C117.271 177.677 108.653 169.641 100.081 161.56C96.57 158.251 97.1381 151.196 101.586 146.941C106.927 141.831 112.712 137.187 118.298 132.333C122.692 128.514 126.954 124.526 131.534 120.946C133.029 119.778 135.344 119.661 137.689 119.159Z" fill="#3F85AE"/>
<path d="M158.07 307.072C154.81 310.057 151.891 313.574 148.223 315.921C139.486 321.51 133.703 319.462 127.816 313.554C119.759 305.468 111.299 297.756 102.683 290.262C96.0275 284.474 98.7029 277.1 104.177 272.246C112.222 265.112 120.056 257.741 128.051 250.549C129.592 249.162 131.46 248.139 133.621 247.01C134.063 247.072 134.227 247.246 134.087 247.551C133.056 249.036 132.327 250.394 131.25 251.367C123.248 258.59 115.235 265.804 107.11 272.888C99.5321 279.494 99.2532 283.868 106.508 291.018C109.935 294.396 113.609 297.53 117.235 300.702C122.589 305.387 127.982 310.029 133.393 314.647C137.694 318.319 141.823 317.398 146.088 314.337C149.857 311.632 153.882 309.284 157.863 306.852C157.932 306.925 158.07 307.072 158.07 307.072Z" fill="#30739D"/>
<path d="M485.857 126.72C485.857 126.72 486.018 126.413 485.976 126.245C486.29 127.184 486.955 128.291 486.956 129.399C487.003 198.325 486.997 267.252 486.988 336.179C486.988 336.673 486.875 337.166 486.393 337.792C485.971 337.924 486.038 337.594 486.007 336.949C485.986 302.537 486.019 268.769 485.999 235.002C485.978 198.908 485.906 162.814 485.857 126.72Z" fill="white"/>
<path d="M302.967 344.389C305.542 345.663 308.512 346.926 310.761 348.979C326.78 363.594 342.667 378.354 358.544 393.124C359.846 394.335 360.77 395.954 361.945 397.724C360.919 397.446 359.648 397.014 358.742 396.183C345.588 384.111 332.482 371.987 319.368 359.871C313.916 354.834 308.474 349.786 302.967 344.389Z" fill="#3C85AF"/>
<path d="M430.395 389.074C431.876 387.601 433.547 385.717 435.634 384.641C448.158 378.191 460.855 372.075 473.338 365.548C481.594 361.231 484.739 353.904 484.439 344.371C485.114 343.979 485.479 344.013 485.843 344.047C487.691 358.891 480.994 365.188 468.184 371.147C456.814 376.436 445.748 382.374 434.518 387.966C433.376 388.535 432.029 388.69 430.395 389.074Z" fill="#468EB8"/>
<path d="M371.992 406.49C372.717 406.123 373.442 406.118 374.527 406.126C378.933 410.129 383.675 409.835 388.282 407.755C395.839 404.344 403.174 400.444 410.685 396.928C413.355 395.679 416.267 394.951 419.454 393.957C416.23 396.159 412.748 398.637 408.983 400.563C402.09 404.088 395.022 407.272 388.04 410.625C382.361 413.352 375.945 411.861 371.992 406.49Z" fill="#5493B8"/>
<path d="M213.464 263.972C221.409 267.696 228.203 272.791 232.967 280.691C228.442 277.36 223.784 273.794 219.381 269.936C214.777 265.902 213.771 265.835 208.905 269.715C205.636 272.321 202.151 274.657 198.366 276.833C197.96 276.342 197.952 276.132 198.169 275.68C203.419 271.617 208.442 267.794 213.464 263.972Z" fill="#3C85AF"/>
<path d="M251.916 298.421C252.843 298.353 254.046 298.37 254.701 298.978C263.786 307.406 272.795 315.915 281.892 324.743C277.732 321.644 273.381 318.342 269.3 314.737C263.41 309.534 257.715 304.111 251.916 298.421Z" fill="#3C85AF"/>
<path d="M238.661 151.988C235.038 156.054 231.187 160.293 227.046 164.228C224.552 166.598 221.609 168.495 218.57 170.688C218.698 169.805 218.867 168.543 219.588 167.918C225.772 162.557 232.056 157.312 238.661 151.988Z" fill="#3C85AF"/>
<path d="M286.672 330.099C288.286 330.427 290.531 330.537 291.769 331.71C295.659 335.395 299.17 339.479 302.901 343.748C297.596 339.513 292.218 334.94 286.672 330.099Z" fill="#3C85AF"/>
<path d="M377.053 31.6082C374.482 32.2729 372.138 32.6257 369.382 33.0075C375.404 27.3669 383.049 26.2602 390.878 30.6528C386.456 31.0968 381.867 31.1967 377.053 31.6082Z" fill="#5493B8"/>
<path d="M133.982 246.986C138.697 242.344 143.495 237.788 148.677 233.148C149.062 233.063 149.265 233.27 149.158 233.591C144.11 238.357 139.168 242.801 134.227 247.246C134.227 247.246 134.063 247.072 133.982 246.986Z" fill="#30739D"/>
<path d="M197.943 275.921C197.952 276.132 197.96 276.342 198.004 276.866C192.979 281.149 187.919 285.118 182.41 289.02C181.96 288.953 181.765 288.741 181.923 288.452C187.369 284.082 192.656 280.002 197.943 275.921Z" fill="#30739D"/>
<path d="M334.083 64.6357C334.173 65.3813 334.336 66.7207 333.771 67.1982C329.813 70.5426 325.704 73.709 321.281 76.9442C323.814 74.014 326.662 71.0238 329.626 68.1524C330.9 66.918 332.414 65.9303 334.083 64.6357Z" fill="#3C85AF"/>
<path d="M275.678 118.085C271.529 122.246 267.071 126.564 262.267 130.926C263.486 129.3 264.963 127.537 266.634 125.982C269.482 123.333 272.451 120.815 275.678 118.085Z" fill="#3C85AF"/>
<path d="M238.898 286.439C243.198 289.861 247.508 293.642 251.88 297.764C247.598 294.336 243.253 290.567 238.898 286.439Z" fill="#3C85AF"/>
<path d="M320.601 76.9298C317.174 80.5761 313.391 84.2335 309.26 87.9379C312.689 84.3035 316.468 80.6223 320.601 76.9298Z" fill="#3C85AF"/>
<path d="M411.953 40.6774C407.137 38.8826 402.169 36.7464 397.11 34.2715C401.947 36.0673 406.874 38.2016 411.953 40.6774Z" fill="#4D94BB"/>
<path d="M485.042 114.753C485.042 114.753 485.011 114.38 485.005 113.726C484.987 103.307 484.974 93.5425 484.961 83.7779C484.961 83.7779 485.014 83.432 485.007 83.2572C485.334 84.4058 485.944 85.7267 485.956 87.0529C486.037 96.0271 485.991 105.002 485.716 114.418C485.445 114.858 485.042 114.753 485.042 114.753Z" fill="#89B2C9"/>
<path d="M173.101 296.108C169.36 299.095 165.619 302.083 161.409 304.996C160.94 304.922 160.7 304.679 160.864 304.394C164.967 301.333 168.907 298.555 172.908 295.862C172.97 295.945 173.101 296.108 173.101 296.108Z" fill="#30739D"/>
<path d="M308.674 88.0925C305.861 90.9121 302.745 93.9013 299.27 96.9335C302.064 94.0717 305.218 91.1668 308.674 88.0925Z" fill="#3C85AF"/>
<path d="M425.914 47.6748C421.709 45.9811 417.369 43.9459 412.945 41.5771C417.167 43.2734 421.474 45.3034 425.914 47.6748Z" fill="#4D94BB"/>
<path d="M148.961 232.96C151.619 230.223 154.378 227.59 157.603 225.017C158.07 225.078 158.307 225.309 158.184 225.618C155.129 228.374 152.197 230.822 149.265 233.27C149.265 233.27 149.062 233.063 148.961 232.96Z" fill="#30739D"/>
<path d="M245.679 145.067C246.305 149.472 242.856 150.543 239.295 151.924C241.084 149.739 243.224 147.467 245.679 145.067Z" fill="#3C85AF"/>
<path d="M176.921 144.646C173.879 143.123 170.695 141.287 167.626 139.221C168.216 138.972 168.692 138.953 169.168 138.935C171.705 140.734 174.241 142.534 176.921 144.646Z" fill="#3C85AF"/>
<path d="M440.943 54.5991C437.47 53.4971 433.859 52.0534 430.126 50.282C433.604 51.3886 437.204 52.823 440.943 54.5991Z" fill="#4D94BB"/>
<path d="M161.981 133.716C159.46 132.243 156.809 130.439 154.079 128.295C156.616 129.765 159.234 131.576 161.981 133.716Z" fill="#3F85AE"/>
<path d="M450.941 59.6641C447.81 58.5178 444.537 57.0342 441.153 55.222C444.295 56.3712 447.546 57.8489 450.941 59.6641Z" fill="#4D94BB"/>
<path d="M183.92 150.679C180.878 150.321 177.64 149.741 177.042 145.308C179.292 146.745 181.543 148.555 183.92 150.679Z" fill="#3C85AF"/>
<path d="M252.634 138.938C250.875 140.918 248.763 142.917 246.292 144.955C248.049 142.981 250.165 140.97 252.634 138.938Z" fill="#3C85AF"/>
<path d="M162 220.325C162.585 220.016 163.029 220.021 163.687 220.346C162.037 222.214 160.172 223.762 158.307 225.309C158.307 225.309 158.07 225.078 157.951 224.963C159.174 223.445 160.516 222.042 162 220.325Z" fill="#30739D"/>
<path d="M233.071 281.325C234.925 282.471 236.904 283.929 238.896 285.747C237.005 284.617 235.101 283.127 233.071 281.325Z" fill="#3C85AF"/>
<path d="M293.661 101.991C292.227 103.618 290.435 105.279 288.284 106.952C289.717 105.318 291.51 103.672 293.661 101.991Z" fill="#3C85AF"/>
<path d="M484.887 81.7404C483.522 80.284 482.252 78.4747 480.99 76.2882C482.326 77.7365 483.655 79.562 484.887 81.7404Z" fill="#468EB8"/>
<path d="M260.644 131.953C259.21 133.593 257.43 135.268 255.291 136.975C256.72 135.335 258.509 133.661 260.644 131.953Z" fill="#3C85AF"/>
<path d="M298.621 96.9402C297.527 98.5407 296.075 100.178 294.288 101.917C295.389 100.337 296.827 98.6572 298.621 96.9402Z" fill="#3C85AF"/>
<path d="M212.956 172.703C211.121 171.55 209.151 170.081 207.096 168.279C208.948 169.425 210.885 170.906 212.956 172.703Z" fill="#3C85AF"/>
<path d="M484.975 115.049C485.042 114.753 485.445 114.858 485.652 114.876C485.89 117.993 485.92 121.093 485.855 124.651C485.247 122.657 484.734 120.205 484.299 117.217C484.557 116.456 484.706 116.211 484.824 115.946C484.852 115.746 484.88 115.545 484.975 115.049Z" fill="#4481A0"/>
<path d="M203.924 165.659C202.119 164.854 200.181 163.73 198.126 162.286C199.936 163.09 201.863 164.216 203.924 165.659Z" fill="#3C85AF"/>
<path d="M280.695 113.117C279.55 114.613 278.092 116.249 276.28 117.941C277.411 116.417 278.896 114.836 280.695 113.117Z" fill="#3C85AF"/>
<path d="M195.004 158.698C193.144 157.908 191.165 156.783 189.091 155.322C190.959 156.112 192.922 157.237 195.004 158.698Z" fill="#3C85AF"/>
<path d="M182.058 289.059C180.661 290.377 179.166 291.59 177.299 292.866C176.927 292.928 176.781 292.78 176.876 292.445C178.569 290.987 180.167 289.864 181.765 288.741C181.765 288.741 181.96 288.953 182.058 289.059Z" fill="#30739D"/>
<path d="M467.988 67.6476C466.167 67.2032 464.218 66.4118 462.149 65.2862C463.973 65.7348 465.917 66.5177 467.988 67.6476Z" fill="#468EB8"/>
<path d="M459.969 63.6544C457.842 63.1919 455.567 62.3915 453.161 61.2609C455.294 61.7261 457.557 62.5213 459.969 63.6544Z" fill="#468EB8"/>
<path d="M151.91 126.66C150.418 125.861 148.804 124.751 147.101 123.306C148.603 124.096 150.196 125.222 151.91 126.66Z" fill="#3F85AE"/>
<path d="M146.039 121.599C144.107 121.27 142.179 120.538 140.061 119.528C141.929 119.898 143.986 120.548 146.039 121.599Z" fill="#3F85AE"/>
<path d="M338.653 60.9501C337.724 62.1086 336.459 63.299 334.831 64.4197C335.752 63.2273 337.035 62.1046 338.653 60.9501Z" fill="#3C85AF"/>
<path d="M342.693 56.8683C341.891 58.1342 340.739 59.4784 339.251 60.9048C340.058 59.6401 341.2 58.2934 342.693 56.8683Z" fill="#3C85AF"/>
<path d="M485.905 343.618C485.479 344.013 485.114 343.979 484.481 343.915C484.538 342.341 484.864 340.797 485.474 339.059C485.828 340.307 485.898 341.748 485.905 343.618Z" fill="#4481A0"/>
<path d="M284.672 109.991C283.892 110.933 282.783 111.93 281.326 112.968C282.1 112.022 283.222 111.034 284.672 109.991Z" fill="#3C85AF"/>
<path d="M287.616 106.936C287.179 107.9 286.384 108.876 285.264 109.927C285.712 108.984 286.485 107.966 287.616 106.936Z" fill="#3C85AF"/>
<path d="M281.937 325.395C282.888 325.837 283.858 326.636 284.895 327.763C283.96 327.313 282.957 326.533 281.937 325.395Z" fill="#3C85AF"/>
<path d="M161.062 305.043C160.39 305.773 159.596 306.383 158.437 307.033C158.07 307.072 157.932 306.925 158.034 306.597C158.99 305.738 159.845 305.209 160.7 304.679C160.7 304.679 160.94 304.922 161.062 305.043Z" fill="#30739D"/>
<path d="M394.956 32.685C393.838 32.5256 392.57 32.0512 391.15 31.2626C392.267 31.4222 393.536 31.8961 394.956 32.685Z" fill="#5493B8"/>
<path d="M475.959 71.6247C475.117 71.5662 474.166 71.1799 473.051 70.5171C473.875 70.5926 474.863 70.9448 475.959 71.6247Z" fill="#468EB8"/>
<path d="M176.999 293.003C176.294 293.72 175.516 294.364 174.342 294.985C173.946 294.963 173.782 294.828 173.95 294.56C175.005 293.789 175.893 293.284 176.781 292.78C176.781 292.78 176.927 292.928 176.999 293.003Z" fill="#30739D"/>
<path d="M479.001 73.6729C478.176 73.5083 477.226 73.0283 476.157 72.2336C476.984 72.3984 477.931 72.878 479.001 73.6729Z" fill="#468EB8"/>
<path d="M365.752 35.9785C365.217 36.653 364.328 37.3567 363.073 38.0964C363.605 37.4242 364.501 36.716 365.752 35.9785Z" fill="#5493B8"/>
<path d="M429.924 49.6636C429.098 49.5881 428.156 49.1836 427.049 48.5035C427.859 48.5968 428.834 48.9656 429.924 49.6636Z" fill="#4D94BB"/>
<path d="M355.689 44.9708C355.222 45.6381 354.424 46.3365 353.283 47.0053C353.746 46.3178 354.552 45.6599 355.689 44.9708Z" fill="#5493B8"/>
<path d="M166.936 137.674C166.132 137.51 165.198 137.039 164.133 136.266C164.937 136.432 165.872 136.9 166.936 137.674Z" fill="#3F85AE"/>
<path d="M186.966 152.698C186.146 152.528 185.206 152.042 184.132 151.255C184.948 151.429 185.897 151.906 186.966 152.698Z" fill="#3C85AF"/>
<path d="M347.027 53.9807C346.208 54.599 345.388 55.2174 344.263 55.914C344.28 55.5174 344.604 55.0425 345.342 54.2969C346.181 54.011 346.604 53.9958 347.027 53.9807Z" fill="#3C85AF"/>
<path d="M352.695 47.0313C352.52 47.6101 352.057 48.2824 351.259 48.9598C351.418 48.3515 351.913 47.7381 352.695 47.0313Z" fill="#5493B8"/>
<path d="M368.772 33.0774C368.587 33.5433 368.138 34.1173 367.453 34.8407C367.647 34.3885 368.077 33.787 368.772 33.0774Z" fill="#5493B8"/>
<path d="M357.744 43.0592C357.524 43.5624 357.022 44.1781 356.23 44.9058C356.447 44.4025 356.955 43.7871 357.744 43.0592Z" fill="#5493B8"/>
<path d="M361.852 38.9095C361.608 39.4254 361.09 40.1153 360.255 40.9107C360.484 40.3719 361.031 39.7277 361.852 38.9095Z" fill="#5493B8"/>
<path d="M359.726 41.0374C359.53 41.578 359.045 42.2155 358.253 42.9386C358.443 42.3942 358.94 41.7642 359.726 41.0374Z" fill="#5493B8"/>
<path d="M349.626 50.5844C349.476 51.1231 349.006 51.4928 348.243 51.9616C348.403 51.5122 348.854 50.9638 349.626 50.5844Z" fill="#5493B8"/>
<path d="M284.996 328.28C285.325 328.366 285.735 328.701 286.2 329.309C285.862 329.231 285.469 328.88 284.996 328.28Z" fill="#3C85AF"/>
<path d="M347.066 53.688C346.604 53.9958 346.181 54.011 345.44 54.0232C345.556 53.6503 345.988 53.2803 346.76 52.8577C347.102 53.0018 347.103 53.1986 347.066 53.688Z" fill="#5493B8"/>
<path d="M350.628 49.0577C350.745 49.4954 350.53 50.0646 350.031 50.7856C349.931 50.3548 350.113 49.772 350.628 49.0577Z" fill="#5493B8"/>
<path d="M215.651 172.998C215.784 173.253 215.569 173.518 215.165 173.96C214.731 173.941 214.492 173.74 214.092 173.366C214.384 173.136 214.843 173.072 215.651 172.998Z" fill="#3C85AF"/>
<path d="M169.011 138.656C168.692 138.953 168.216 138.972 167.384 138.993C167.021 138.821 167.013 138.646 167.014 138.208C167.633 138.089 168.243 138.233 169.011 138.656Z" fill="#3F85AE"/>
<path d="M253.709 138.121C253.716 138.258 253.486 138.475 253.091 138.864C253.105 138.755 253.286 138.476 253.709 138.121Z" fill="#3C85AF"/>
<path d="M452.994 60.7059C452.772 60.8724 452.51 60.7151 452.113 60.346C452.27 60.2705 452.597 60.3531 452.994 60.7059Z" fill="#468EB8"/>
<path d="M461.977 64.7039C461.747 64.8852 461.48 64.735 461.083 64.3611C461.247 64.2764 461.577 64.3547 461.977 64.7039Z" fill="#468EB8"/>
<path d="M469.961 68.7471C469.734 68.9209 469.477 68.7711 469.104 68.3931C469.265 68.3134 469.58 68.3995 469.961 68.7471Z" fill="#468EB8"/>
<path d="M471.984 69.7359C471.764 69.917 471.502 69.7735 471.114 69.4053C471.273 69.3206 471.59 69.3975 471.984 69.7359Z" fill="#468EB8"/>
<path d="M396.982 33.734C396.78 33.8877 396.521 33.7397 396.129 33.384C396.276 33.313 396.585 33.3984 396.982 33.734Z" fill="#4D94BB"/>
<path d="M146.955 122.737C146.74 122.831 146.487 122.623 146.131 122.164C146.287 122.135 146.583 122.309 146.955 122.737Z" fill="#3F85AE"/>
<path d="M153.969 127.74C153.742 127.904 153.479 127.746 153.086 127.365C153.249 127.289 153.574 127.38 153.969 127.74Z" fill="#3F85AE"/>
<path d="M261.734 131.017C261.782 131.2 261.567 131.464 261.139 131.871C261.108 131.709 261.29 131.404 261.734 131.017Z" fill="#3C85AF"/>
<path d="M163.958 135.747C163.782 135.789 163.527 135.576 163.131 135.155C163.286 135.129 163.582 135.31 163.958 135.747Z" fill="#3F85AE"/>
<path d="M174.026 295.033C173.93 295.381 173.754 295.659 173.339 296.022C173.101 296.108 172.97 295.945 173.061 295.701C173.356 295.24 173.566 295.031 173.782 294.828C173.782 294.828 173.946 294.963 174.026 295.033Z" fill="#30739D"/>
<path d="M188.936 154.756C188.727 154.842 188.478 154.633 188.13 154.174C188.281 154.149 188.569 154.328 188.936 154.756Z" fill="#3C85AF"/>
<path d="M197.954 161.744C197.744 161.846 197.488 161.65 197.125 161.212C197.277 161.176 197.575 161.336 197.954 161.744Z" fill="#3C85AF"/>
<path d="M205.016 166.74C204.83 166.792 204.562 166.576 204.145 166.148C204.309 166.115 204.621 166.294 205.016 166.74Z" fill="#3C85AF"/>
<path d="M206.979 167.715C206.744 167.89 206.466 167.73 206.035 167.36C206.206 167.275 206.557 167.352 206.979 167.715Z" fill="#3C85AF"/>
<path d="M485.64 127.062C485.906 162.814 485.978 198.908 485.999 235.002C486.019 268.769 485.986 302.537 485.921 336.804C485.268 335.502 484.149 333.701 484.146 331.898C484.061 265.998 484.065 200.098 484.138 134.198C484.141 131.933 484.976 129.669 485.64 127.062Z" fill="#4481A0"/>
<path d="M388.894 133.035C389.261 134.97 389.944 136.904 389.947 138.839C390.007 189.187 390.001 239.535 389.977 289.883C389.977 291.359 389.66 292.834 389.264 294.208C389.023 249.693 389.02 205.28 388.962 160.867C388.959 158.59 388.479 156.314 388.132 153.581C387.96 147.45 387.878 141.777 387.798 135.767C388.165 134.632 388.53 133.834 388.894 133.035Z" fill="#408AB1"/>
<path d="M388.222 154.038C388.479 156.314 388.959 158.59 388.962 160.867C389.02 205.28 389.023 249.693 389.079 294.58C388.994 295.361 388.917 295.68 388.726 296.369C388.561 296.727 388.257 297.013 388.172 296.546C388.057 251.384 388.024 206.69 388.008 161.996C388.007 159.343 388.147 156.691 388.222 154.038Z" fill="#AED7E8"/>
<path d="M388.903 132.776C388.53 133.834 388.165 134.632 387.441 135.761C386.198 136.414 385.174 136.55 384.453 137.09C377.555 142.256 370.777 147.585 363.825 152.677C357.995 156.947 351.98 160.963 346.047 165.092C347.046 163.623 347.75 161.765 349.09 160.746C361.45 151.349 373.915 142.092 386.37 132.821C386.879 132.443 387.588 132.334 388.544 132.049C388.893 132.171 388.902 132.344 388.903 132.776Z" fill="#2978A3"/>
<path d="M388.257 297.013C388.257 297.013 388.561 296.727 388.742 296.617C389.079 299.427 389.235 302.348 389.207 305.61C385.707 303.566 382.391 301.181 379.357 298.383C382.149 299.745 384.659 301.522 387.717 303.686C387.964 300.629 388.111 298.821 388.257 297.013Z" fill="#408AB1"/>
<path d="M484.763 84.1662C484.974 93.5425 484.987 103.307 484.976 113.542C484.823 104.192 484.694 94.3734 484.763 84.1662Z" fill="#468EB8"/>
<path d="M484.679 116.106C484.706 116.211 484.557 116.456 484.232 116.843C484.208 116.74 484.357 116.494 484.679 116.106Z" fill="#468EB8"/>
<path d="M173.95 294.56C173.566 295.031 173.356 295.24 172.999 295.617C168.907 298.555 164.967 301.333 160.864 304.394C159.845 305.209 158.99 305.738 157.965 306.523C153.882 309.284 149.857 311.632 146.088 314.337C141.823 317.398 137.694 318.319 133.393 314.647C127.982 310.029 122.589 305.387 117.235 300.702C113.609 297.53 109.935 294.396 106.508 291.018C99.2532 283.868 99.5321 279.494 107.11 272.888C115.235 265.804 123.248 258.59 131.25 251.367C132.327 250.394 133.056 249.036 134.087 247.551C139.168 242.801 144.11 238.357 149.158 233.591C152.197 230.822 155.129 228.374 158.184 225.618C160.172 223.762 162.037 222.214 164.019 220.339C164.137 220.011 164.595 219.841 164.821 219.746C169.667 223.645 174.338 227.582 178.897 231.646C189.281 240.903 199.625 250.204 209.938 259.54C211.149 260.637 212.062 262.065 213.289 263.656C208.442 267.794 203.419 271.617 198.169 275.68C192.656 280.002 187.369 284.082 181.923 288.452C180.167 289.864 178.569 290.987 176.876 292.445C175.893 293.284 175.005 293.789 173.95 294.56Z" fill="#1170B3"/>
<path d="M290.701 207.079C287.839 210.029 284.667 213.086 281.379 216.012C280.163 217.094 278.674 217.871 277.038 218.969C278.218 220.338 279.047 221.301 279.97 222.565C278.488 221.73 276.914 220.594 275.178 219.238C280.127 215.057 285.236 211.095 290.701 207.079Z" fill="#2978A3"/>
<path d="M302.106 240.274C304.264 241.414 306.523 242.879 308.915 244.667C306.767 243.526 304.488 242.063 302.106 240.274Z" fill="#3F85AE"/>
<path d="M365.095 288.276C366.694 289.044 368.371 290.156 370.072 291.638C368.455 290.879 366.813 289.749 365.095 288.276Z" fill="#3C85AF"/>
<path d="M294.043 234.304C295.252 234.773 296.559 235.582 298.007 236.715C296.813 236.241 295.477 235.443 294.043 234.304Z" fill="#3F85AE"/>
<path d="M299.099 238.199C299.924 238.377 300.879 238.865 301.938 239.673C301.105 239.499 300.167 239.003 299.099 238.199Z" fill="#3F85AE"/>
<path d="M358.168 283.246C358.965 283.413 359.896 283.878 360.948 284.656C360.147 284.494 359.224 284.018 358.168 283.246Z" fill="#3C85AF"/>
<path d="M361.152 285.227C361.956 285.403 362.889 285.882 363.938 286.673C363.13 286.499 362.205 286.015 361.152 285.227Z" fill="#3C85AF"/>
<path d="M371.142 293.247C371.955 293.412 372.901 293.882 373.98 294.655C373.167 294.49 372.221 294.021 371.142 293.247Z" fill="#3C85AF"/>
<path d="M310.136 246.148C310.301 246.115 310.605 246.297 310.988 246.742C310.803 246.791 310.538 246.577 310.136 246.148Z" fill="#3F85AE"/>
<path d="M364.139 287.149C364.301 287.117 364.604 287.297 364.99 287.739C364.808 287.787 364.544 287.574 364.139 287.149Z" fill="#3C85AF"/>
<path d="M357.14 282.138C357.296 282.109 357.595 282.283 357.974 282.712C357.759 282.804 357.503 282.596 357.14 282.138Z" fill="#3C85AF"/>
<path d="M356.137 281.152C356.291 281.126 356.589 281.31 356.977 281.748C356.806 281.789 356.543 281.576 356.137 281.152Z" fill="#3C85AF"/>
<path d="M280.193 223.128C280.361 223.089 280.668 223.249 281.022 223.677C280.788 223.782 280.541 223.576 280.193 223.128Z" fill="#2978A3"/>
<path d="M355.114 280.394C355.268 280.318 355.579 280.404 355.972 280.743C355.76 280.907 355.5 280.759 355.114 280.394Z" fill="#3C85AF"/>
<path d="M281.195 224.13C281.356 224.09 281.663 224.249 282.043 224.668C281.814 224.784 281.555 224.585 281.195 224.13Z" fill="#2978A3"/>
<path d="M292.058 232.343C292.23 232.256 292.593 232.344 293.051 232.724C292.848 232.85 292.548 232.683 292.058 232.343Z" fill="#3F85AE"/>
<path d="M309.132 245.163C309.302 245.124 309.612 245.296 309.994 245.736C309.801 245.793 309.537 245.584 309.132 245.163Z" fill="#3F85AE"/>
<path d="M311.136 247.133C311.286 247.107 311.581 247.285 311.964 247.711C311.76 247.795 311.503 247.586 311.136 247.133Z" fill="#3F85AE"/>
<path d="M345.714 165.068C339.462 170.381 332.886 175.771 326.206 181.03C323.862 182.876 321.264 184.4 318.406 186.081C318.252 185.476 318.286 184.601 318.724 184.283C327.571 177.848 336.465 171.477 345.714 165.068Z" fill="#2978A3"/>
<path d="M317.734 186.091C317.828 186.773 317.801 187.831 317.277 188.22C308.8 194.519 300.259 200.733 291.38 207.013C294.294 203.94 297.331 200.526 300.882 197.773C306.193 193.656 311.864 190.004 317.734 186.091Z" fill="#2978A3"/>
</g>
<defs>
<clipPath id="clip0_0_1">
<rect width="577" height="433" fill="white"/>
</clipPath>
</defs>
</svg>
